<svg width="18" height="14" viewBox="0 0 18 14" fill="none" xmlns="http://www.w3.org/2000/svg">
<path d="M15.6667 0.528809H2.33341C1.41675 0.528809 0.675081 1.26881 0.675081 2.17325L0.666748 12.0399C0.666748 12.9444 1.41675 13.6844 2.33341 13.6844H15.6667C16.5834 13.6844 17.3334 12.9444 17.3334 12.0399V2.17325C17.3334 1.26881 16.5834 0.528809 15.6667 0.528809ZM15.3334 4.02325L9.44175 7.65747C9.17508 7.82192 8.82508 7.82192 8.55842 7.65747L2.66675 4.02325C2.58319 3.97697 2.51001 3.91444 2.45166 3.83945C2.3933 3.76446 2.35097 3.67856 2.32723 3.58696C2.30349 3.49536 2.29883 3.39996 2.31355 3.30653C2.32826 3.2131 2.36203 3.12359 2.41282 3.04341C2.4636 2.96323 2.53035 2.89406 2.60902 2.84007C2.68769 2.78608 2.77664 2.74841 2.87049 2.72932C2.96435 2.71023 3.06115 2.71014 3.15504 2.72903C3.24894 2.74793 3.33797 2.78542 3.41675 2.83925L9.00008 6.28436L14.5834 2.83925C14.6622 2.78542 14.7512 2.74793 14.8451 2.72903C14.939 2.71014 15.0358 2.71023 15.1297 2.72932C15.2235 2.74841 15.3125 2.78608 15.3911 2.84007C15.4698 2.89406 15.5366 2.96323 15.5873 3.04341C15.6381 3.12359 15.6719 3.2131 15.6866 3.30653C15.7013 3.39996 15.6967 3.49536 15.6729 3.58696C15.6492 3.67856 15.6069 3.76446 15.5485 3.83945C15.4902 3.91444 15.417 3.97697 15.3334 4.02325V4.02325Z" fill="#BDBDBD"/>
</svg>
