<svg width="20" height="21" viewBox="0 0 20 21" fill="none" xmlns="http://www.w3.org/2000/svg">
<path d="M10.001 0.948486C4.47895 0.948486 0.00195312 5.36579 0.00195312 10.8142C0.00195312 15.7376 3.65795 19.8185 8.43895 20.5614V13.6666H5.89895V10.8142H8.43895V8.64054C8.43895 6.16598 9.93195 4.80142 12.215 4.80142C13.309 4.80142 14.455 4.99382 14.455 4.99382V7.42003H13.191C11.951 7.42003 11.563 8.18174 11.563 8.96219V10.8122H14.334L13.891 13.6646H11.563V20.5595C16.344 19.8205 20 15.7386 20 10.8142C20 5.36579 15.523 0.948486 10.001 0.948486V0.948486Z" fill="#BDBDBD"/>
</svg>
