<svg width="153" height="175" viewBox="0 0 153 175" fill="none" xmlns="http://www.w3.org/2000/svg">
<path d="M37.9688 35.0217C37.9688 36.7509 37.6458 38.2405 37 39.4905C36.375 40.7405 35.5312 41.803 34.4688 42.678C33.4062 43.553 32.1771 44.2717 30.7812 44.8342C29.4062 45.3759 27.9688 45.803 26.4688 46.1155C24.9688 46.428 23.4583 46.6363 21.9375 46.7405C20.4375 46.8446 19.0312 46.8967 17.7188 46.8967C16.4271 46.8967 15.0833 46.8446 13.6875 46.7405C12.3125 46.6571 10.9375 46.5009 9.5625 46.2717C8.1875 46.0426 6.83333 45.7405 5.5 45.3655C4.16667 44.9696 2.90625 44.4801 1.71875 43.8967L1.65625 3.64673C2.82292 3.16756 4.0625 2.74048 5.375 2.36548C6.6875 1.96965 8.02083 1.64673 9.375 1.39673C10.75 1.1259 12.1146 0.927979 13.4688 0.802979C14.8229 0.657145 16.1354 0.584229 17.4062 0.584229C18.8854 0.584229 20.375 0.677979 21.875 0.865479C23.3958 1.05298 24.8542 1.36548 26.25 1.80298C27.6458 2.24048 28.9479 2.8134 30.1562 3.52173C31.3646 4.20923 32.4167 5.0634 33.3125 6.08423C34.2292 7.10506 34.9375 8.29256 35.4375 9.64673C35.9583 11.0009 36.2188 12.5634 36.2188 14.3342C36.2188 15.5009 36.0521 16.5946 35.7188 17.6155C35.3854 18.6363 34.9062 19.553 34.2812 20.3655C33.6562 21.178 32.8958 21.8759 32 22.4592C31.1042 23.0217 30.0938 23.4384 28.9688 23.7092C30.3229 24.0634 31.5521 24.5842 32.6562 25.2717C33.7812 25.9592 34.7292 26.7926 35.5 27.7717C36.2917 28.7509 36.8958 29.8551 37.3125 31.0842C37.75 32.3134 37.9688 33.6259 37.9688 35.0217ZM22.0938 17.2092C22.0938 16.6051 21.9688 16.0946 21.7188 15.678C21.4688 15.2405 21.1562 14.8863 20.7812 14.6155C20.4271 14.3446 20.0312 14.1467 19.5938 14.0217C19.1771 13.8967 18.8021 13.8342 18.4688 13.8342C18.0521 13.8342 17.6458 13.8967 17.25 14.0217C16.8542 14.1467 16.4688 14.2926 16.0938 14.4592L15.9062 21.3967C16.3854 21.3967 16.9792 21.3551 17.6875 21.2717C18.3958 21.1884 19.0729 21.0113 19.7188 20.7405C20.3854 20.4488 20.9479 20.0321 21.4062 19.4905C21.8646 18.928 22.0938 18.1676 22.0938 17.2092ZM17.6562 27.3967C17.0521 27.3967 16.4688 27.4592 15.9062 27.5842L15.7812 34.7092C16.0938 34.7717 16.3958 34.8342 16.6875 34.8967C17 34.9384 17.3021 34.9592 17.5938 34.9592C18.0312 34.9592 18.5104 34.9176 19.0312 34.8342C19.5521 34.7301 20.0417 34.5426 20.5 34.2717C20.9583 33.9801 21.3333 33.5946 21.625 33.1155C21.9375 32.6363 22.0938 32.0009 22.0938 31.2092C22.0938 30.4176 21.9375 29.7717 21.625 29.2717C21.3333 28.7717 20.9688 28.3863 20.5312 28.1155C20.0938 27.8238 19.6146 27.6363 19.0938 27.553C18.5729 27.4488 18.0938 27.3967 17.6562 27.3967ZM73.9062 20.8967C73.9062 22.7092 73.7812 24.5217 73.5312 26.3342C69.9688 26.5634 66.4271 26.9384 62.9062 27.4592C59.3854 27.9592 55.8646 28.4592 52.3438 28.9592C52.8854 30.4592 53.7292 31.6571 54.875 32.553C56.0417 33.4488 57.4271 33.8967 59.0312 33.8967C59.8646 33.8967 60.7708 33.7405 61.75 33.428C62.75 33.1155 63.7396 32.7301 64.7188 32.2717C65.6979 31.7926 66.6354 31.2821 67.5312 30.7405C68.4271 30.1988 69.1979 29.7092 69.8438 29.2717L68.3438 43.4592C67.5312 44.0842 66.6458 44.6155 65.6875 45.053C64.75 45.4905 63.7708 45.8446 62.75 46.1155C61.7292 46.3863 60.6979 46.5842 59.6562 46.7092C58.6146 46.8342 57.5938 46.8967 56.5938 46.8967C54.5312 46.8967 52.6458 46.6155 50.9375 46.053C49.2292 45.4905 47.6771 44.7092 46.2812 43.7092C44.9062 42.6884 43.6979 41.4905 42.6562 40.1155C41.6146 38.7405 40.75 37.2405 40.0625 35.6155C39.375 33.9905 38.8542 32.2717 38.5 30.4592C38.1458 28.6467 37.9688 26.8134 37.9688 24.9592C37.9688 23.0217 38.1458 21.0842 38.5 19.1467C38.8542 17.2092 39.3854 15.3446 40.0938 13.553C40.8229 11.7613 41.7292 10.1051 42.8125 8.58423C43.9167 7.04256 45.1979 5.69881 46.6562 4.55298C48.1146 3.40715 49.7604 2.51131 51.5938 1.86548C53.4479 1.21965 55.4896 0.896729 57.7188 0.896729C59.5729 0.896729 61.2604 1.15715 62.7812 1.67798C64.3229 2.17798 65.6875 2.88631 66.875 3.80298C68.0833 4.69881 69.125 5.77173 70 7.02173C70.8958 8.27173 71.625 9.64673 72.1875 11.1467C72.7708 12.6259 73.1979 14.1988 73.4688 15.8655C73.7604 17.5113 73.9062 19.1884 73.9062 20.8967ZM61.4062 19.2717C61.4062 18.6884 61.3438 18.0946 61.2188 17.4905C61.0938 16.8655 60.8854 16.303 60.5938 15.803C60.3229 15.303 59.9583 14.8967 59.5 14.5842C59.0417 14.2509 58.4688 14.0842 57.7812 14.0842C56.9479 14.0842 56.2083 14.3134 55.5625 14.7717C54.9375 15.2092 54.3958 15.7717 53.9375 16.4592C53.4792 17.1259 53.1042 17.8551 52.8125 18.6467C52.5208 19.4384 52.3021 20.1676 52.1562 20.8342L61.4062 19.9592V19.2717ZM108 30.1467C108 33.0009 107.5 35.4696 106.5 37.553C105.521 39.6155 104.167 41.3238 102.438 42.678C100.729 44.0113 98.7188 45.0009 96.4062 45.6467C94.1146 46.2717 91.6458 46.5842 89 46.5842C87.9792 46.5842 86.8542 46.4488 85.625 46.178C84.4167 45.9071 83.1875 45.5738 81.9375 45.178C80.6875 44.7613 79.4792 44.3238 78.3125 43.8655C77.1667 43.3863 76.1458 42.9384 75.25 42.5217L76.625 30.2717C78.3958 31.3342 80.3542 32.1467 82.5 32.7092C84.6667 33.2509 86.7917 33.5217 88.875 33.5217C89.2708 33.5217 89.75 33.5113 90.3125 33.4905C90.875 33.4488 91.4062 33.3551 91.9062 33.2092C92.4271 33.0426 92.8646 32.803 93.2188 32.4905C93.5729 32.178 93.75 31.7301 93.75 31.1467C93.75 30.7509 93.625 30.4176 93.375 30.1467C93.125 29.8551 92.8021 29.6259 92.4062 29.4592C92.0104 29.2717 91.5625 29.1363 91.0625 29.053C90.5625 28.9488 90.0729 28.8759 89.5938 28.8342C89.1146 28.7926 88.6667 28.7717 88.25 28.7717C87.8333 28.7717 87.5 28.7717 87.25 28.7717C85.4583 28.7717 83.8229 28.4905 82.3438 27.928C80.8854 27.3655 79.625 26.5738 78.5625 25.553C77.5208 24.5113 76.7083 23.2613 76.125 21.803C75.5417 20.3238 75.25 18.6884 75.25 16.8967C75.25 14.4384 75.7396 12.2405 76.7188 10.303C77.7188 8.34465 79.0417 6.6884 80.6875 5.33423C82.3542 3.95923 84.2604 2.90715 86.4062 2.17798C88.5521 1.44881 90.7708 1.08423 93.0625 1.08423C94.0833 1.08423 95.1354 1.1259 96.2188 1.20923C97.3021 1.27173 98.375 1.39673 99.4375 1.58423C100.521 1.77173 101.573 2.01131 102.594 2.30298C103.615 2.59465 104.583 2.95923 105.5 3.39673L104.312 16.0842C102.896 15.6051 101.406 15.2092 99.8438 14.8967C98.3021 14.5634 96.7917 14.3967 95.3125 14.3967C95.0417 14.3967 94.6875 14.4071 94.25 14.428C93.8333 14.428 93.3854 14.4592 92.9062 14.5217C92.4479 14.5634 91.9792 14.6363 91.5 14.7405C91.0208 14.8446 90.5938 14.9905 90.2188 15.178C89.8438 15.3446 89.5417 15.5738 89.3125 15.8655C89.0833 16.1571 88.9792 16.5009 89 16.8967C89.0208 17.3551 89.1875 17.7092 89.5 17.9592C89.8333 18.2092 90.25 18.3967 90.75 18.5217C91.2708 18.6259 91.8333 18.678 92.4375 18.678C93.0625 18.678 93.6771 18.6676 94.2812 18.6467C94.8854 18.6051 95.4479 18.5738 95.9688 18.553C96.4896 18.5113 96.9167 18.5009 97.25 18.5217C98.9167 18.6259 100.417 18.9801 101.75 19.5842C103.083 20.1884 104.208 20.9905 105.125 21.9905C106.062 22.9905 106.771 24.1884 107.25 25.5842C107.75 26.9592 108 28.4801 108 30.1467ZM142.375 2.08423L142.062 15.3342L132.75 15.7092L131.625 44.7092L118.438 45.3967L117.25 16.3967L107.938 16.8967L108.312 2.14673L142.375 2.08423ZM38 145.334C38 147.355 37.6979 149.147 37.0938 150.709C36.4896 152.272 35.6562 153.647 34.5938 154.834C33.5521 156.001 32.3229 156.99 30.9062 157.803C29.4896 158.595 27.9688 159.251 26.3438 159.772C24.7396 160.272 23.0729 160.647 21.3438 160.897C19.6146 161.126 17.9167 161.251 16.25 161.272V174.584H1.6875C1.6875 172.209 1.6875 169.897 1.6875 167.647C1.70833 165.397 1.71875 163.168 1.71875 160.959C1.73958 158.73 1.75 156.49 1.75 154.24C1.77083 151.99 1.79167 149.668 1.8125 147.272C1.85417 144.73 1.86458 142.188 1.84375 139.647C1.82292 137.105 1.875 134.543 2 131.959C4.66667 131.168 7.33333 130.574 10 130.178C12.6667 129.782 15.4167 129.584 18.25 129.584C19.8542 129.584 21.4583 129.72 23.0625 129.99C24.6667 130.24 26.1979 130.647 27.6562 131.209C29.1354 131.772 30.5 132.48 31.75 133.334C33.0208 134.168 34.1146 135.168 35.0312 136.334C35.9479 137.501 36.6667 138.834 37.1875 140.334C37.7292 141.834 38 143.501 38 145.334ZM24.125 146.397C24.125 145.043 23.7083 143.99 22.875 143.24C22.0625 142.47 21 142.084 19.6875 142.084C19.25 142.084 18.7917 142.126 18.3125 142.209C17.8542 142.272 17.4167 142.355 17 142.459L16.625 151.584C16.9167 151.626 17.1979 151.647 17.4688 151.647C17.7396 151.647 18.0208 151.647 18.3125 151.647C19.0625 151.647 19.7812 151.522 20.4688 151.272C21.1771 151.022 21.8021 150.668 22.3438 150.209C22.8854 149.73 23.3125 149.178 23.625 148.553C23.9583 147.907 24.125 147.188 24.125 146.397ZM67.1875 157.584L65.875 171.459L39.5625 173.522L40.5625 128.897H56.8125L54.5 157.584H67.1875ZM108.062 171.459L92.5625 173.459L90.6875 166.397H83.5625L82 173.459L66.0625 171.897L78.5 130.272L95.875 129.397L108.062 171.459ZM89.5625 156.834L87.1875 145.959L84.875 156.834H89.5625ZM147.5 158.334C147.5 160.688 147.469 163.022 147.406 165.334C147.365 167.626 147.292 169.938 147.188 172.272L129.188 171.959C129.812 168.272 130.354 164.595 130.812 160.928C131.271 157.24 131.5 153.522 131.5 149.772C131.5 149.501 131.49 149.063 131.469 148.459C131.448 147.855 131.406 147.178 131.344 146.428C131.281 145.657 131.188 144.876 131.062 144.084C130.958 143.272 130.802 142.532 130.594 141.865C130.406 141.199 130.167 140.657 129.875 140.24C129.604 139.803 129.271 139.584 128.875 139.584C128.167 139.584 127.562 139.793 127.062 140.209C126.583 140.626 126.177 141.168 125.844 141.834C125.531 142.48 125.281 143.209 125.094 144.022C124.906 144.834 124.76 145.647 124.656 146.459C124.573 147.272 124.51 148.043 124.469 148.772C124.448 149.48 124.438 150.063 124.438 150.522C124.333 154.209 124.25 157.876 124.188 161.522C124.125 165.147 124.042 168.813 123.938 172.522L108 173.209C108.417 165.855 108.812 158.543 109.188 151.272C109.583 144.001 109.896 136.688 110.125 129.334L124.875 128.584L124.75 133.584C125.333 132.876 125.958 132.209 126.625 131.584C127.312 130.959 128.042 130.428 128.812 129.99C129.583 129.532 130.396 129.178 131.25 128.928C132.125 128.657 133.042 128.522 134 128.522C135.771 128.522 137.323 128.813 138.656 129.397C139.99 129.98 141.135 130.772 142.094 131.772C143.052 132.772 143.854 133.959 144.5 135.334C145.146 136.688 145.667 138.136 146.062 139.678C146.458 141.22 146.76 142.834 146.969 144.522C147.177 146.188 147.312 147.834 147.375 149.459C147.458 151.084 147.5 152.657 147.5 154.178C147.5 155.699 147.5 157.084 147.5 158.334Z" fill="white"/>
<path d="M34.6875 66.0842L34.375 79.3342L25.0625 79.7092L23.9375 108.709L10.75 109.397L9.5625 80.3967L0.25 80.8967L0.625 66.1467L34.6875 66.0842ZM74.4688 86.2092C74.4688 88.1051 74.25 89.9384 73.8125 91.7092C73.375 93.4592 72.7396 95.1051 71.9062 96.6467C71.0938 98.1884 70.0938 99.6051 68.9062 100.897C67.7396 102.168 66.4167 103.261 64.9375 104.178C63.4792 105.095 61.8854 105.813 60.1562 106.334C58.4271 106.834 56.5938 107.084 54.6562 107.084C52.7812 107.084 50.9896 106.845 49.2812 106.365C47.5938 105.886 46.0104 105.22 44.5312 104.365C43.0521 103.49 41.7083 102.449 40.5 101.24C39.3125 100.011 38.2917 98.6571 37.4375 97.178C36.6042 95.678 35.9479 94.0738 35.4688 92.3655C35.0104 90.6571 34.7812 88.8759 34.7812 87.0217C34.7812 85.2092 35 83.4384 35.4375 81.7092C35.875 79.9592 36.5 78.3134 37.3125 76.7717C38.1458 75.2301 39.1458 73.8134 40.3125 72.5217C41.4792 71.2301 42.7812 70.1155 44.2188 69.178C45.6771 68.2405 47.25 67.5113 48.9375 66.9905C50.625 66.4696 52.4062 66.2092 54.2812 66.2092C57.3021 66.2092 60.0521 66.678 62.5312 67.6155C65.0312 68.553 67.1562 69.8967 68.9062 71.6467C70.6771 73.3759 72.0417 75.4801 73 77.9592C73.9792 80.4176 74.4688 83.1676 74.4688 86.2092ZM60.5938 87.0217C60.5938 86.1259 60.4583 85.2613 60.1875 84.428C59.9375 83.5738 59.5625 82.8238 59.0625 82.178C58.5625 81.5113 57.9375 80.9801 57.1875 80.5842C56.4583 80.1676 55.6146 79.9592 54.6562 79.9592C53.6771 79.9592 52.8021 80.1363 52.0312 80.4905C51.2604 80.8446 50.5938 81.3342 50.0312 81.9592C49.4896 82.5634 49.0729 83.2821 48.7812 84.1155C48.4896 84.928 48.3438 85.7926 48.3438 86.7092C48.3438 87.5842 48.4688 88.4592 48.7188 89.3342C48.9688 90.2092 49.3438 91.0009 49.8438 91.7092C50.3438 92.4176 50.9583 92.9905 51.6875 93.428C52.4375 93.8655 53.3021 94.0842 54.2812 94.0842C55.2604 94.0842 56.1354 93.8967 56.9062 93.5217C57.6979 93.1259 58.3646 92.6051 58.9062 91.9592C59.4479 91.2926 59.8646 90.5321 60.1562 89.678C60.4479 88.8238 60.5938 87.9384 60.5938 87.0217ZM113.906 66.1467C112.969 73.4801 112.167 80.7821 111.5 88.053C110.833 95.303 110.198 102.605 109.594 109.959L96.7812 110.897L97.3438 106.084C96.9271 106.563 96.4375 106.98 95.875 107.334C95.3333 107.688 94.75 107.98 94.125 108.209C93.5 108.418 92.8542 108.574 92.1875 108.678C91.5208 108.761 90.8854 108.793 90.2812 108.772C88.8646 108.751 87.5312 108.48 86.2812 107.959C85.0312 107.418 83.8854 106.709 82.8438 105.834C81.8021 104.938 80.8646 103.907 80.0312 102.74C79.1979 101.553 78.4896 100.313 77.9062 99.0217C77.3438 97.7092 76.9062 96.3759 76.5938 95.0217C76.3021 93.6676 76.1562 92.3551 76.1562 91.0842C76.1562 89.2092 76.1875 87.2717 76.25 85.2717C76.3333 83.2509 76.4688 81.2301 76.6562 79.2092C76.8438 77.1884 77.0833 75.1884 77.375 73.2092C77.6875 71.2301 78.0729 69.3342 78.5312 67.5217C81.0729 67.6467 83.625 67.7613 86.1875 67.8655C88.75 67.9696 91.3021 68.0009 93.8438 67.9592C93.3646 69.7717 92.8854 71.5946 92.4062 73.428C91.9479 75.2405 91.5312 77.0738 91.1562 78.928C90.7812 80.7613 90.4792 82.6051 90.25 84.4592C90.0208 86.3134 89.9062 88.1884 89.9062 90.0842C89.9062 90.5217 89.9271 91.1467 89.9688 91.9592C90.0104 92.7717 90.1146 93.5738 90.2812 94.3655C90.4688 95.1571 90.7396 95.8551 91.0938 96.4592C91.4688 97.0426 91.9896 97.3342 92.6562 97.3342C93.4479 97.3342 94.1562 97.0009 94.7812 96.3342C95.4062 95.6467 95.9583 94.7301 96.4375 93.5842C96.9167 92.4384 97.3229 91.1155 97.6562 89.6155C98.0104 88.1155 98.3021 86.553 98.5312 84.928C98.7812 83.2821 98.9792 81.6259 99.125 79.9592C99.2708 78.2926 99.375 76.7301 99.4375 75.2717C99.5208 73.7926 99.5729 72.4696 99.5938 71.303C99.6354 70.1363 99.6562 69.2301 99.6562 68.5842C99.6562 68.1676 99.6458 67.7613 99.625 67.3655C99.6042 66.9696 99.5729 66.5634 99.5312 66.1467C100.885 66.1884 102.229 66.2196 103.562 66.2405C104.896 66.2613 106.24 66.2717 107.594 66.2717C108.635 66.2717 109.677 66.2717 110.719 66.2717C111.781 66.2509 112.844 66.2092 113.906 66.1467ZM152.406 80.0217C152.406 81.6467 152.26 83.1259 151.969 84.4592C151.698 85.7717 151.26 86.9801 150.656 88.0842C150.052 89.1884 149.271 90.2092 148.312 91.1467C147.354 92.0842 146.198 92.9801 144.844 93.8342L152.281 107.084L138.219 109.834L133.406 96.5217L129.531 96.6467L128.969 109.647H115.531C115.635 104.897 115.729 100.168 115.812 95.4592C115.917 90.7509 116.031 86.0217 116.156 81.2717C116.198 78.8759 116.24 76.5009 116.281 74.1467C116.323 71.7926 116.406 69.4176 116.531 67.0217C117.99 66.4801 119.427 66.0321 120.844 65.678C122.26 65.3238 123.677 65.053 125.094 64.8655C126.531 64.6571 127.979 64.5217 129.438 64.4592C130.917 64.3759 132.427 64.3342 133.969 64.3342C136.344 64.3342 138.635 64.6676 140.844 65.3342C143.073 65.9801 145.042 66.9592 146.75 68.2717C148.458 69.5842 149.823 71.2196 150.844 73.178C151.885 75.1363 152.406 77.4176 152.406 80.0217ZM138.406 81.0217C138.406 80.1467 138.281 79.3446 138.031 78.6155C137.802 77.8863 137.448 77.2613 136.969 76.7405C136.51 76.1988 135.927 75.7821 135.219 75.4905C134.531 75.178 133.719 75.0217 132.781 75.0217C132.365 75.0217 131.958 75.053 131.562 75.1155C131.167 75.1571 130.781 75.2301 130.406 75.3342L129.906 86.9592H130.656C131.552 86.9592 132.458 86.8446 133.375 86.6155C134.312 86.3863 135.146 86.0321 135.875 85.553C136.625 85.0738 137.229 84.4592 137.688 83.7092C138.167 82.9592 138.406 82.0634 138.406 81.0217Z" fill="#EC1F46"/>
</svg>
