<svg xmlns="http://www.w3.org/2000/svg" width="20" height="21.969" viewBox="0 0 20 21.969">
  <defs>
    <style>
      .cls-1 {
        fill: #fff;
        fill-rule: evenodd;
      }
    </style>
  </defs>
  <path id="Vector" class="cls-1" d="M2722.39,408.211a0.988,0.988,0,0,1,1.22,0l9,7a0.986,0.986,0,0,1,.39.79v11a3,3,0,0,1-3,3h-14a3,3,0,0,1-3-3V416a0.986,0.986,0,0,1,.39-0.79Zm-7.39,8.278V427a1.029,1.029,0,0,0,.29.707,1,1,0,0,0,.71.293h14a1,1,0,0,0,.71-0.293A1.029,1.029,0,0,0,2731,427V416.489l-8-6.222Zm4,2.511a1,1,0,0,1,1-1h6a1,1,0,0,1,1,1v10a1,1,0,0,1-2,0v-9h-4v9a1,1,0,0,1-2,0V419Z" transform="translate(-2713 -408.031)"/>
</svg>
