<svg width="20" height="21" viewBox="0 0 20 21" fill="none" xmlns="http://www.w3.org/2000/svg">
<path d="M10 20.6801C8.64583 20.6801 7.35026 20.42 6.11328 19.8996C4.8763 19.3793 3.81185 18.6792 2.91992 17.7991C2.02799 16.9191 1.31836 15.8688 0.791016 14.6483C0.263672 13.4279 0 12.1496 0 10.8134C0 9.47733 0.263672 8.19903 0.791016 6.97855C1.31836 5.75806 2.02799 4.7078 2.91992 3.82777C3.81185 2.94773 4.8763 2.24756 6.11328 1.72725C7.35026 1.20693 8.64583 0.946777 10 0.946777C11.3542 0.946777 12.6497 1.20693 13.8867 1.72725C15.1237 2.24756 16.1882 2.94773 17.0801 3.82777C17.972 4.7078 18.6816 5.75806 19.209 6.97855C19.7363 8.19903 20 9.47733 20 10.8134C20 12.1496 19.7363 13.4279 19.209 14.6483C18.6816 15.8688 17.972 16.9191 17.0801 17.7991C16.1882 18.6792 15.1237 19.3793 13.8867 19.8996C12.6497 20.42 11.3542 20.6801 10 20.6801ZM15 7.11344C15 6.77942 14.8796 6.49035 14.6387 6.24626C14.3978 6.00216 14.1016 5.88011 13.75 5.88011H6.25C5.91146 5.88011 5.61849 6.00216 5.37109 6.24626C5.1237 6.49035 5 6.77942 5 7.11344V8.34678H7.22656C7.98177 7.52456 8.90625 7.11344 10 7.11344C11.0938 7.11344 12.0182 7.52456 12.7734 8.34678H15V7.11344ZM7.5 10.8134C7.5 11.4943 7.74414 12.0757 8.23242 12.5575C8.7207 13.0392 9.3099 13.2801 10 13.2801C10.6901 13.2801 11.2793 13.0392 11.7676 12.5575C12.2559 12.0757 12.5 11.4943 12.5 10.8134C12.5 10.1325 12.2559 9.5512 11.7676 9.06943C11.2793 8.58766 10.6901 8.34678 10 8.34678C9.3099 8.34678 8.7207 8.58766 8.23242 9.06943C7.74414 9.5512 7.5 10.1325 7.5 10.8134ZM15 9.58011H13.5156C13.6719 10.0041 13.75 10.4152 13.75 10.8134C13.75 11.8412 13.3854 12.7148 12.6562 13.4343C11.9271 14.1537 11.0417 14.5134 10 14.5134C8.95833 14.5134 8.07292 14.1537 7.34375 13.4343C6.61458 12.7148 6.25 11.8412 6.25 10.8134C6.25 10.4152 6.32812 10.0041 6.48438 9.58011H5V14.5134C5 14.8603 5.12044 15.1526 5.36133 15.3903C5.60221 15.6279 5.89844 15.7468 6.25 15.7468H13.75C14.1016 15.7468 14.3978 15.6279 14.6387 15.3903C14.8796 15.1526 15 14.8603 15 14.5134V9.58011Z" fill="#BDBDBD"/>
</svg>
