<svg id="phone-call" xmlns="http://www.w3.org/2000/svg" width="22.82" height="23" viewBox="0 0 22.82 23">
  <defs>
    <style>
      .cls-1 {
        fill: #fff;
        fill-rule: evenodd;
      }
    </style>
  </defs>
  <path id="Vector" class="cls-1" d="M2735,475.9h-0.3a22.539,22.539,0,0,1-9.1-3.2,21.028,21.028,0,0,1-6.3-6.3,19.916,19.916,0,0,1-3.2-9.1,3.408,3.408,0,0,1,.7-2.2,3.09,3.09,0,0,1,2-1.1h3.3a3.019,3.019,0,0,1,3,2.6,10.957,10.957,0,0,0,.6,2.6,3.171,3.171,0,0,1-.7,3.2l-0.7.7a15.517,15.517,0,0,0,4.6,4.6l0.7-.7a3.124,3.124,0,0,1,3.2-.7,10.957,10.957,0,0,0,2.6.6,3.019,3.019,0,0,1,2.6,3v3a2.723,2.723,0,0,1-.9,2.1A3.333,3.333,0,0,1,2735,475.9ZM2722.1,456h-3a1.234,1.234,0,0,0-.8.4,1.445,1.445,0,0,0-.2.7,18.81,18.81,0,0,0,2.9,8.2,18.243,18.243,0,0,0,5.7,5.7,18.81,18.81,0,0,0,8.2,2.9,0.984,0.984,0,0,0,.8-0.3,0.908,0.908,0,0,0,.3-0.7v-3a1.063,1.063,0,0,0-.9-1,11.136,11.136,0,0,1-3-.8,1.09,1.09,0,0,0-1.1.2l-1.3,1.3a1.063,1.063,0,0,1-1.2.2,16.409,16.409,0,0,1-6.4-6.4,1.314,1.314,0,0,1,.3-1.2l1.3-1.3a1.163,1.163,0,0,0,.2-1,16.662,16.662,0,0,1-.8-3A0.987,0.987,0,0,0,2722.1,456Zm11.9,7a0.974,0.974,0,0,1-1-.8,4.193,4.193,0,0,0-3.2-3.2,1.02,1.02,0,1,1,.4-2,5.857,5.857,0,0,1,4.7,4.7,1.012,1.012,0,0,1-.8,1.2A0.1,0.1,0,0,1,2734,463Zm4-.1a1.063,1.063,0,0,1-1-.9,8.075,8.075,0,0,0-7.1-7.1,1.172,1.172,0,0,1-.9-1.1,1.088,1.088,0,0,1,1.1-.9,9.805,9.805,0,0,1,8.8,8.8,0.993,0.993,0,0,1-.9,1.1C2738.1,462.9,2738,462.9,2738,462.9Z" transform="translate(-2716.09 -452.906)"/>
</svg>
