<svg width="21" height="21" viewBox="0 0 21 21" fill="none" xmlns="http://www.w3.org/2000/svg">
<path d="M12.1831 10.1337L9.82477 9.04794C9.61897 8.95367 9.44992 9.05934 9.44992 9.28415V11.3292C9.44992 11.554 9.61897 11.6597 9.82477 11.5654L12.182 10.4797C12.3889 10.3844 12.3889 10.229 12.1831 10.1337ZM10.4999 0.361084C4.93282 0.361084 0.419922 4.81381 0.419922 10.3067C0.419922 15.7996 4.93282 20.2523 10.4999 20.2523C16.067 20.2523 20.5799 15.7996 20.5799 10.3067C20.5799 4.81381 16.067 0.361084 10.4999 0.361084ZM10.4999 14.3471C5.34022 14.3471 5.24992 13.8881 5.24992 10.3067C5.24992 6.72523 5.34022 6.26628 10.4999 6.26628C15.6596 6.26628 15.7499 6.72523 15.7499 10.3067C15.7499 13.8881 15.6596 14.3471 10.4999 14.3471Z" fill="#BDBDBD"/>
</svg>
